<svg xmlns="http://www.w3.org/2000/svg" width="93.333" height="93.333" preserveAspectRatio="xMidYMid meet" version="1.0" viewBox="0 0 70 70"><metadata>Created by potrace 1.14, written by Peter Selinger 2001-2017</metadata><g fill="#000" stroke="none"><path d="M182 689 c2 -6 -8 -13 -22 -15 -29 -5 -70 -31 -70 -44 0 -6 -7 -10 -15 -10 -8 0 -15 -4 -15 -9 0 -6 -13 -30 -30 -54 -28 -43 -30 -50 -30 -146 0 -83 3 -101 15 -101 8 0 15 -5 15 -11 0 -5 -5 -7 -11 -3 -6 3 -4 -4 4 -17 9 -13 16 -27 16 -32 0 -4 12 -27 26 -52 l26 -44 -35 -71 c-24 -50 -31 -73 -22 -76 6 -2 88 -3 181 -2 130 2 169 6 167 16 -1 6 3 12 9 12 5 0 7 5 3 12 -4 6 -3 8 4 4 6 -3 13 -3 16 2 7 12 76 2 76 -12 0 -6 5 -4 10 4 6 9 10 10 10 3 0 -8 10 -7 33 4 41 20 37 16 43 48 3 15 11 34 19 42 13 12 16 23 15 48 0 3 12 17 28 30 27 23 39 55 20 55 -17 0 -48 66 -46 97 1 17 6 29 11 26 5 -3 7 17 6 43 -3 52 -27 124 -41 124 -4 0 -8 5 -8 11 0 19 -64 70 -123 99 -53 25 -70 28 -173 29 -83 2 -114 -1 -112 -10z m206 -28 c2 -6 14 -11 26 -11 12 0 32 -7 44 -16 12 -8 22 -12 22 -9 0 9 61 -52 88 -89 13 -18 20 -37 16 -48 -3 -12 -1 -18 7 -16 7 2 13 -1 14 -7 0 -5 4 -15 8 -22 11 -18 -8 -24 -38 -13 -35 13 -58 13 -49 -2 4 -7 3 -8 -4 -4 -7 4 -12 4 -12 0 0 -11 34 -33 51 -34 18 0 33 -26 23 -41 -3 -6 6 -32 20 -60 22 -41 24 -50 12 -55 -20 -8 -49 -58 -64 -111 -7 -24 -17 -43 -22 -44 -33 -3 -60 -1 -100 11 -25 7 -51 13 -58 14 -8 1 -17 7 -20 12 -15 20 -49 33 -60 22 -14 -14 2 -38 24 -38 8 0 14 -7 14 -15 0 -8 7 -15 15 -15 20 0 19 -14 -1 -31 -12 -10 -50 -14 -135 -14 -104 0 -119 2 -123 18 -2 9 3 24 11 33 17 17 28 124 13 124 -8 0 -20 26 -20 43 1 4 -6 14 -14 23 -8 8 -18 30 -22 49 -3 19 -9 35 -13 35 -4 0 -8 36 -8 80 0 67 2 78 14 69 11 -10 12 -9 7 5 -9 22 59 116 84 116 6 0 12 3 14 8 2 4 21 16 44 27 31 15 58 20 114 18 42 -1 76 -7 78 -12z" transform="translate(0.000000,70.000000) scale(0.100000,-0.100000)"/><path d="M281 639 c-24 -13 -39 -15 -52 -9 -13 8 -25 2 -52 -25 -18 -18 -45 -37 -59 -40 -19 -5 -25 -13 -24 -33 1 -28 -31 -75 -45 -66 -4 2 -7 -4 -6 -15 0 -11 5 -17 9 -15 4 3 8 0 8 -6 0 -14 43 -30 50 -19 3 4 12 4 20 -1 12 -8 10 -14 -13 -34 -36 -31 -32 -56 10 -70 18 -6 43 -20 55 -31 26 -22 45 -27 54 -14 3 5 10 7 15 4 7 -5 14 39 7 48 -1 1 11 15 26 30 52 52 121 63 147 24 9 -14 65 28 72 53 3 11 1 22 -3 25 -5 3 0 21 11 39 l20 34 -31 32 c-16 17 -32 41 -34 53 -3 19 -9 22 -55 22 -29 1 -55 6 -59 11 -13 20 -37 21 -71 3z m-4 -61 c-3 -8 -6 -5 -6 6 -1 11 2 17 5 13 3 -3 4 -12 1 -19z m107 1 c-3 -5 -14 -9 -26 -9 -17 0 -18 3 -8 14 12 15 44 10 34 -5z m-128 -15 c-4 -9 -9 -14 -12 -11 -3 3 -14 -3 -25 -14 -22 -22 -39 -18 -35 9 2 10 12 17 25 18 12 1 27 6 33 12 15 15 22 7 14 -14z m57 0 c16 -6 12 -44 -5 -44 -5 0 -7 4 -3 9 3 5 1 12 -5 16 -10 6 -14 25 -6 25 2 0 11 -3 19 -6z m112 -4 c-3 -5 -2 -10 3 -10 5 0 9 -6 9 -14 0 -8 -8 -14 -18 -13 -10 1 -16 4 -15 7 2 3 6 13 9 23 4 9 9 17 12 17 4 0 3 -4 0 -10z m-220 -70 c18 -20 17 -20 -14 -20 -29 0 -30 2 -19 20 7 11 13 20 14 20 0 0 9 -9 19 -20z m112 -14 c-4 -11 -25 -16 -40 -8 -4 2 -3 10 3 17 13 16 43 8 37 -9z m141 10 c3 -4 -1 -13 -10 -22 -14 -14 -17 -14 -30 0 -9 8 -19 12 -22 8 -4 -3 -4 1 -1 9 6 16 49 18 63 5z m-316 -3 c-10 -4 -9 -8 5 -18 16 -13 16 -14 1 -11 -10 1 -20 5 -24 8 -9 9 5 28 19 27 8 0 8 -2 -1 -6z m122 -44 c-8 -14 -31 -11 -37 5 -3 8 -1 17 6 19 15 6 39 -12 31 -24z m124 -17 c-8 -9 -13 -10 -18 -2 -4 7 -10 11 -14 11 -23 -3 -30 0 -16 9 13 9 13 10 0 11 -8 0 -4 4 10 8 30 9 55 -16 38 -37z m-128 -46 c0 -11 -68 -62 -73 -55 -1 2 -9 12 -16 21 -11 15 -9 20 19 36 32 20 70 19 70 -2z" transform="translate(0.000000,70.000000) scale(0.100000,-0.100000)"/></g></svg>